<svg xmlns="http://www.w3.org/2000/svg" xmlns:xlink="http://www.w3.org/1999/xlink" width="909" zoomAndPan="magnify" viewBox="0 0 681.75 681.74998" height="909" preserveAspectRatio="xMidYMid meet" version="1.0"><defs><clipPath id="77b78dea2d"><path d="M 59.421875 59.421875 L 622.328125 59.421875 L 622.328125 622.328125 L 59.421875 622.328125 Z M 59.421875 59.421875 " clip-rule="nonzero"/></clipPath><clipPath id="9cc17e0e91"><path d="M 340.875 59.421875 C 185.433594 59.421875 59.421875 185.433594 59.421875 340.875 C 59.421875 496.316406 185.433594 622.328125 340.875 622.328125 C 496.316406 622.328125 622.328125 496.316406 622.328125 340.875 C 622.328125 185.433594 496.316406 59.421875 340.875 59.421875 " clip-rule="nonzero"/></clipPath></defs><g clip-path="url(#77b78dea2d)"><g clip-path="url(#9cc17e0e91)"><path fill="#ffffff" d="M 59.421875 59.421875 L 622.328125 59.421875 L 622.328125 622.328125 L 59.421875 622.328125 Z M 59.421875 59.421875 " fill-opacity="1" fill-rule="nonzero"/></g></g><path fill="#1e6b70" d="M 358.546875 557.445312 C 357.558594 558.59375 356.660156 559.738281 355.835938 560.886719 C 341.261719 573.671875 318.65625 573.75 288.023438 561.132812 C 257.226562 548.515625 225.449219 526.0625 192.6875 493.78125 C 160.417969 461.011719 137.976562 429.214844 125.363281 398.40625 C 112.753906 367.769531 112.914062 345.230469 125.855469 330.808594 C 127 329.496094 128.066406 328.511719 129.050781 327.859375 C 120.53125 341.953125 123.234375 363.339844 137.15625 392.015625 C 151.078125 420.691406 173.523438 450.847656 204.480469 482.472656 C 235.769531 513.285156 265.746094 535.652344 294.410156 549.582031 C 323.074219 563.347656 344.457031 565.972656 358.546875 557.445312 Z M 358.546875 557.445312 " fill-opacity="1" fill-rule="evenodd"/><path fill="#6fb3b7" d="M 123.394531 319.488281 C 103.570312 274.261719 102.507812 241.566406 120.199219 221.410156 C 121.511719 219.773438 122.984375 218.460938 124.621094 217.476562 C 112.988281 237.144531 117.988281 268.03125 139.609375 310.148438 C 161.230469 352.429688 195.386719 397.25 242.070312 444.609375 C 289.410156 491.3125 334.210938 525.476562 376.472656 547.113281 C 418.734375 568.910156 449.777344 574.070312 469.597656 562.597656 C 468.277344 564.402344 466.976562 565.875 465.660156 567.023438 C 445.679688 584.722656 413.15625 583.65625 368.113281 563.828125 C 323.066406 544 275.726562 509.75 226.09375 461.078125 C 177.449219 411.75 143.210938 364.558594 123.394531 319.488281 Z M 123.394531 319.488281 " fill-opacity="1" fill-rule="evenodd"/><path fill="#6fb3b7" d="M 545.074219 533.082031 C 543.929688 534.886719 542.617188 536.609375 541.136719 538.246094 C 518.699219 557.75 482.089844 556.023438 431.304688 533.082031 C 380.691406 510.144531 327.210938 471.054688 270.859375 415.832031 C 215.824219 359.785156 176.757812 306.28125 153.660156 255.316406 C 130.726562 204.515625 129.007812 167.890625 148.5 145.4375 C 150.136719 143.632812 151.855469 142.160156 153.660156 141.011719 C 140.554688 163.136719 146.457031 198.125 171.351562 245.976562 C 196.414062 293.824219 235.398438 344.625 288.308594 398.378906 C 342.199219 451.3125 393.058594 490.230469 440.894531 515.140625 C 488.722656 540.210938 523.453125 546.191406 545.074219 533.082031 Z M 545.074219 533.082031 " fill-opacity="1" fill-rule="evenodd"/><path fill="#1e6b70" d="M 323.425781 362.988281 C 277.394531 316.285156 245.453125 271.054688 227.601562 227.300781 C 209.746094 183.546875 209.992188 151.34375 228.335938 130.695312 C 229.480469 129.058594 230.957031 127.746094 232.757812 126.765625 C 220.3125 146.589844 223.996094 176.992188 243.816406 217.960938 C 263.636719 258.925781 295.660156 301.867188 339.886719 346.765625 C 384.605469 391.011719 427.4375 422.96875 468.394531 442.632812 C 509.34375 462.460938 539.734375 466.148438 559.550781 453.695312 C 558.570312 455.175781 557.257812 456.726562 555.621094 458.371094 C 534.980469 476.554688 502.875 476.71875 459.300781 458.863281 C 415.734375 440.996094 370.441406 409.039062 323.425781 362.988281 Z M 323.425781 362.988281 " fill-opacity="1" fill-rule="evenodd"/><path fill="#6fb3b7" d="M 373.296875 313.820312 C 326.121094 265.96875 292.457031 220.65625 272.308594 177.886719 C 252.160156 135.113281 249.949219 104.714844 265.675781 86.6875 C 266.820312 85.542969 268.132812 84.394531 269.605469 83.246094 C 259.289062 101.109375 265.101562 130.199219 287.050781 170.511719 C 308.835938 210.824219 342.335938 253.925781 387.542969 299.808594 C 433.410156 344.875 476.492188 378.304688 516.789062 400.101562 C 557.082031 421.730469 586.164062 427.386719 604.015625 417.0625 C 602.871094 418.535156 601.71875 420.011719 600.574219 421.480469 C 582.554688 437.210938 552.09375 434.917969 509.167969 414.601562 C 466.417969 394.445312 421.125 360.851562 373.296875 313.820312 Z M 373.296875 313.820312 " fill-opacity="1" fill-rule="evenodd"/><path fill="#1e6b70" d="M 575.523438 326.597656 C 575.027344 327.742188 574.296875 328.894531 573.3125 330.039062 C 559.386719 342.167969 538.007812 342.328125 509.183594 330.53125 C 480.355469 318.730469 450.375 297.589844 419.253906 267.109375 C 388.949219 235.976562 367.902344 205.988281 356.101562 177.144531 C 344.308594 148.300781 344.390625 126.914062 356.347656 112.984375 C 357.496094 112.496094 358.644531 111.757812 359.789062 110.773438 C 351.433594 123.886719 353.8125 143.957031 366.914062 170.996094 C 379.851562 198.199219 400.898438 226.714844 430.058594 256.539062 C 459.871094 285.546875 488.296875 306.609375 515.324219 319.714844 C 542.355469 332.660156 562.417969 334.953125 575.523438 326.597656 Z M 575.523438 326.597656 " fill-opacity="1" fill-rule="evenodd"/><path fill="#6fb3b7" d="M 126.363281 404.535156 C 122.433594 416.007812 124.398438 432.066406 132.261719 452.714844 C 140.125 473.199219 153.800781 493.601562 173.292969 513.921875 C 193.28125 533.261719 213.589844 546.859375 234.230469 554.726562 C 254.707031 562.757812 270.839844 564.640625 282.632812 560.378906 C 281.980469 563.160156 280.667969 565.457031 278.703125 567.257812 C 269.695312 575.453125 253.800781 575.949219 231.035156 568.738281 C 208.269531 561.523438 185.417969 546.859375 162.484375 524.738281 C 140.367188 501.792969 125.625 479.015625 118.253906 456.402344 C 110.882812 433.785156 111.292969 417.808594 119.484375 408.46875 C 121.289062 406.824219 123.578125 405.515625 126.363281 404.535156 Z M 126.363281 404.535156 " fill-opacity="1" fill-rule="evenodd"/><path fill="#1e6b70" d="M 417.527344 112.5 C 413.597656 124.300781 415.5625 140.441406 423.425781 160.925781 C 431.289062 181.246094 444.964844 201.570312 464.457031 221.886719 C 484.769531 241.390625 505.160156 255.074219 525.640625 262.9375 C 546.277344 270.804688 562.328125 272.773438 573.796875 268.839844 C 572.816406 271.789062 571.503906 274.085938 569.867188 275.722656 C 560.859375 283.585938 545.050781 283.917969 522.445312 276.703125 C 499.839844 269.492188 476.90625 254.828125 453.648438 232.703125 C 431.53125 209.761719 416.789062 186.984375 409.417969 164.367188 C 402.046875 141.753906 402.457031 125.777344 410.648438 116.433594 C 412.613281 114.628906 414.902344 113.324219 417.527344 112.5 Z M 417.527344 112.5 " fill-opacity="1" fill-rule="evenodd"/><path fill="#1e6b70" d="M 512.105469 174.449219 C 496.871094 159.371094 481.390625 148.800781 465.667969 142.742188 C 450.109375 136.511719 437.660156 134.957031 428.320312 138.070312 C 428.972656 136.433594 429.960938 134.789062 431.265625 133.152344 C 438.3125 127.253906 450.433594 127.007812 467.632812 132.417969 C 484.992188 137.988281 502.445312 149.132812 519.96875 165.847656 C 537.003906 183.546875 548.304688 201 553.871094 218.203125 C 559.445312 235.574219 559.113281 247.785156 552.886719 254.832031 C 551.746094 256.144531 550.023438 257.121094 547.726562 257.78125 C 550.84375 248.929688 549.453125 236.722656 543.550781 221.15625 C 537.660156 205.585938 527.175781 190.019531 512.105469 174.449219 Z M 512.105469 174.449219 " fill-opacity="1" fill-rule="evenodd"/></svg>